<?xml version="1.0" standalone="no"?>
<!DOCTYPE svg PUBLIC "-//W3C//DTD SVG 1.1//EN" "http://www.w3.org/Graphics/SVG/1.1/DTD/svg11.dtd">
<svg xmlns:xlink="http://www.w3.org/1999/xlink" xmlns="http://www.w3.org/2000/svg" xml:space="preserve" style="enable-background:new 0 0 359.7 359.7;" viewBox="0 0 359.7 359.7" y="0px" x="0px" id="Livello_1" version="1.1" width="359.70001220703125" height="359.70001220703125">
<style type="text/css">
	.st0{fill:#E94E32;}
</style>
<g>
	<path d="M214.9,111.1l-2.1,4.9c-0.8,1.7,0,3.8,1.8,4.6l55.1,24.3c34.3,15.1,56.4,49.1,56.4,86.6   c0,52.3-42.4,94.6-94.6,94.6h-2.8c-36.8,0-70.2-21.3-85.8-54.6l-26.8-57.5c-0.8-1.7-2.9-2.5-4.6-1.7l-4.8,2.2   c-1.7,0.8-2.5,2.9-1.7,4.6l47.6,102c1.1,2.3-0.6,4.9-3.1,4.9l-112.2,0c-1.9,0-3.5-1.5-3.5-3.5V211.2c0-62.7,75.8-94.1,120.2-49.8   l85.6,85.6c1.4,1.4,3.5,1.4,4.9,0l3.8-3.8c1.4-1.4,1.4-3.5,0-4.9l-84.2-84.2c-44.4-44.4-13-120.4,49.9-120.4h108.8   c1.9,0,3.5,1.5,3.5,3.5l0,113.9c0,2.5-2.6,4.2-4.9,3.2l-101.7-44.9C217.7,108.5,215.7,109.3,214.9,111.1" class="st0"/>
</g>
</svg>